<?xml version="1.0" encoding="utf-8"?>
<!-- Generator: Adobe Illustrator 18.0.0, SVG Export Plug-In . SVG Version: 6.00 Build 0)  -->
<!DOCTYPE svg PUBLIC "-//W3C//DTD SVG 1.1//EN" "http://www.w3.org/Graphics/SVG/1.1/DTD/svg11.dtd">
<svg version="1.1" id="Layer_1" xmlns="http://www.w3.org/2000/svg" xmlns:xlink="http://www.w3.org/1999/xlink" x="0px" y="0px"
	 viewBox="0 0 1024 768" enable-background="new 0 0 1024 768" xml:space="preserve">
<rect x="-64" y="-60" fill="#EBEBEB" width="1152" height="888"/>
<g>
	<g>
		<path fill="#414141" d="M568.3,328.7l1.8-0.9L567,321l-1.8,0.9c-10.6,4.9-16.6,12.2-19.8,17.4c-0.9,1.5-1.7,3-2.4,4.5
			c-1.1-0.2-2.3-0.3-3.5-0.3c-8.8,0-16.7,5.5-19.7,13.7c-0.4,0.8-3.6,7.7-6.2,11.4c-0.7,0.9-1.7,2.1-2.8,3.5
			c-3.5,4.3-8.9,10.8-11.9,18.6c-0.1,0.2-0.2,0.5-0.3,0.7c-2.7,7.3-2.3,15.3,1,22.3c3.3,7.1,9.1,12,16.5,14.7
			c3.2,1.2,6.6,1.4,10,1.4c0,0,0,0,0,0c12.2,0,23.3-7.3,27.4-18.8c0.1-0.2,0.1-0.3,0.2-0.5l0,0c2.7-8,2.8-16.3,2.9-21.9
			c0-1.8,0-3.3,0.1-4.5c0.4-4.5,2.4-11.9,2.6-12.8c1.8-5,1.6-10.3-0.4-15.2c-1.8-4.2-4.9-7.7-8.8-10c0.5-1.1,1.1-2.2,1.8-3.3
			C554.5,338.8,559.5,332.8,568.3,328.7z M555.4,370.3l-0.1,0.2c-0.1,0.3-2.3,8.4-2.7,13.6c-0.1,1.3-0.1,2.9-0.1,4.8
			c-0.1,5.6-0.1,13.3-2.7,20.7l0,0.1c-0.1,0.2-0.1,0-0.2,0.1C546,419.7,536.5,426,526,426c0,0,0,0,0,0c-2.9,0-5.8-0.2-8.6-1.2
			c-6.3-2.3-11.3-6.8-14.2-12.9c-2.8-6.1-3.1-12.8-0.8-19.1c0.1-0.2,0.2-0.4,0.2-0.6c2.8-7.3,7.7-13.2,11.3-17.5
			c1.2-1.5,2.2-2.7,3-3.8c3-4.2,6.5-11.8,6.6-12.1l0.1-0.2c2.4-6.7,8.8-11.1,15.9-11.1c1.4,0,2.8,0.2,4.2,0.5l1.5,0.4l1.4,0.7
			C554.5,352.8,558.4,362.1,555.4,370.3z"/>
		<path fill="#414141" d="M528.3,337h0.2c7.2,0,13.9-2.5,18.9-7.7l1.4-1.2l-1.4-1.3c-5-5.1-11.7-7.8-18.8-7.8h-0.2
			c-7.2,0-13.9,3-18.9,8.2l-1.4,1.5l1.4,0.9C514.5,334.7,521.2,337,528.3,337z M528.4,322h0.2c5.3,0,10.4,2.5,14.4,5.9
			c-4,3.5-9.1,6.1-14.5,6.1h-0.2c-5.3,0-10.4-2.5-14.4-5.9C517.9,324.6,523,322,528.4,322z"/>
		<circle fill="#414141" cx="533.3" cy="364.7" r="5"/>
		<circle fill="#414141" cx="524.4" cy="385.3" r="8.9"/>
	</g>
	<g>
		<g>
			<path fill="#414141" d="M429.2,405.2c-1.2,3.6-3,6.8-5.3,9.5c-2.3,2.8-5.1,5-8.3,6.7c-3.3,1.7-7,2.5-11.1,2.5
				c-2,0-4.1-0.1-6.1-0.4c-2-0.3-4.1-0.6-6-1v25.4l-0.9,0.9h-2.8l-0.8-0.9v-75.7l0.8-0.9h2.8l0.9,0.9v7.3c1.9-2.9,4.3-5.1,7.2-6.7
				c2.9-1.5,6.1-2.3,9.6-2.3c7.5,0,13.1,2.1,16.6,6.2c3.5,4.2,5.3,9.9,5.3,17.2C431.1,397.9,430.5,401.6,429.2,405.2z M425.6,386.1
				c-0.7-2.4-1.7-4.5-3.1-6.2c-1.4-1.7-3.2-3-5.4-4c-2.2-0.9-4.8-1.4-7.9-1.4c-2.7,0-5.1,0.5-7.1,1.5c-2,1-3.8,2.4-5.2,4.2
				c-1.4,1.8-2.5,3.8-3.2,6.1c-0.7,2.3-1.1,4.7-1.1,7.2v24.8c1.9,0.7,3.9,1.2,5.9,1.4c2,0.2,4.1,0.3,6.1,0.3c3.6,0,6.7-0.7,9.5-2.2
				c2.7-1.5,5-3.4,6.9-5.9c1.9-2.4,3.3-5.2,4.2-8.3c0.9-3.1,1.4-6.3,1.4-9.6C426.6,391.2,426.2,388.5,425.6,386.1z"/>
		</g>
		<g>
			<path fill="#414141" d="M484.1,396.5c-6.3,0.2-12.5,0.4-18.7,0.6c-6.2,0.2-12.5,0.3-18.7,0.3c0,3.2,0.4,6.2,1.1,8.9
				c0.7,2.7,1.9,5.1,3.4,7.1c1.5,2,3.5,3.6,5.9,4.8c2.4,1.2,5.3,1.8,8.8,1.8c2,0,3.9-0.3,5.8-0.8c1.9-0.5,3.6-1.1,5.1-1.7
				c1.5-0.6,2.8-1.2,3.8-1.7c1-0.5,1.6-0.8,1.7-0.8c0.3,0,0.5,0.2,0.6,0.5c0.1,0.4,0.2,0.8,0.2,1.2c0,0.4,0,0.9,0,1.3
				c0,0.4-0.1,0.8-0.1,1l-0.4,0.8c-1.1,0.7-2.4,1.2-3.8,1.8c-1.4,0.5-2.9,0.9-4.3,1.3c-1.5,0.3-2.9,0.6-4.4,0.8
				c-1.5,0.2-2.8,0.3-4.2,0.3c-4.5,0-8.3-0.7-11.3-2.1c-3-1.4-5.5-3.3-7.3-5.8c-1.8-2.5-3.1-5.5-3.9-8.9c-0.8-3.5-1.2-7.3-1.2-11.6
				c0-3.7,0.5-7,1.5-10.1c1-3.1,2.5-5.7,4.5-7.9c2-2.2,4.4-3.9,7.3-5.1c2.9-1.2,6.3-1.9,10.1-1.9c3.8,0,7,0.7,9.5,2.1
				c2.5,1.4,4.5,3.3,6,5.6c1.5,2.3,2.5,5,3.1,8c0.6,3,0.9,6.1,0.9,9.4L484.1,396.5z M479.3,386c-0.6-2.2-1.5-4.1-2.7-5.8
				c-1.2-1.7-2.7-3.1-4.6-4.1c-1.9-1-4-1.5-6.5-1.5c-2.8,0-5.3,0.5-7.6,1.4c-2.3,1-4.3,2.2-5.9,3.9c-1.6,1.6-2.9,3.6-3.8,6
				c-0.9,2.3-1.4,4.9-1.5,7.6h3.2c5.1,0,10.2-0.1,15.3-0.2c5.1-0.1,10.2-0.3,15.3-0.7C480.3,390.3,479.9,388.1,479.3,386z"/>
		</g>
	</g>
	<g>
		<g>
			<path fill="#414141" d="M596.8,376c-0.7-0.3-1.5-0.5-2.4-0.5c-0.9,0-1.6-0.1-2.3-0.1c-2,0-3.9,0.4-5.6,1.1
				c-1.8,0.7-3.4,1.7-4.7,3c-1.4,1.2-2.4,2.7-3.2,4.4c-0.8,1.7-1.2,3.6-1.2,5.6v32.8l-0.9,0.9h-2.8l-0.9-0.9v-50.2l0.8-0.9h2.8
				l0.9,0.9v7.1c2-2.7,4.4-4.8,7.2-6.2c2.8-1.5,5.9-2.2,9.1-2.2c0.7,0,1.3,0,1.9,0c0.6,0,1.2,0.1,1.8,0.2l0.8,0.9v3.3L596.8,376z"/>
		</g>
		<g>
			<path fill="#414141" d="M634.6,416.9c-1,1.7-2.4,3.1-4.1,4.1c-1.7,1.1-3.6,1.8-5.6,2.2c-2.1,0.4-4.2,0.7-6.3,0.7
				c-2.1,0-4.5-0.2-7-0.6c-2.6-0.4-4.8-1-6.8-1.8l-0.5-0.7v-3.6c0-0.6,0.3-0.9,0.8-0.9c1.4,0.5,2.6,1,3.5,1.4
				c0.9,0.4,1.9,0.8,2.8,1.2c0.9,0.3,1.9,0.6,3.1,0.8c1.1,0.2,2.6,0.3,4.4,0.3c1.5,0,3-0.2,4.5-0.5c1.5-0.3,2.9-0.9,4.2-1.6
				c1.2-0.7,2.2-1.7,3-2.9c0.8-1.2,1.2-2.7,1.2-4.4c0-2.3-0.7-4.2-2-5.6c-1.4-1.4-3-2.6-5-3.7c-2-1-4.2-2-6.6-2.9
				c-2.4-0.9-4.6-2-6.6-3.3c-2-1.3-3.7-2.9-5-4.9c-1.4-1.9-2-4.5-2-7.6c0-2.2,0.5-4.1,1.4-5.6c0.9-1.5,2.1-2.8,3.6-3.7
				c1.5-0.9,3.1-1.6,5-2c1.9-0.4,3.7-0.6,5.6-0.6c2.3,0,4.6,0.1,7,0.4c2.4,0.3,4.7,0.8,6.8,1.4l0.7,0.8v3.2c0,0.1-0.1,0.3-0.2,0.5
				c-0.1,0.2-0.2,0.3-0.4,0.3c-0.4,0-1.2-0.1-2.1-0.4c-1-0.3-2.1-0.6-3.4-0.9c-1.3-0.3-2.6-0.6-4.1-0.9c-1.5-0.3-2.9-0.4-4.3-0.4
				c-1.3,0-2.6,0.1-3.9,0.4c-1.3,0.3-2.5,0.7-3.6,1.3c-1.1,0.6-1.9,1.4-2.6,2.5c-0.7,1-1,2.3-1,3.8c0,2.4,0.7,4.3,2,5.8
				c1.4,1.5,3,2.7,5,3.8c2,1.1,4.2,2.1,6.6,3c2.4,1,4.6,2.1,6.6,3.3c2,1.3,3.7,2.9,5,4.8c1.4,1.9,2,4.4,2,7.5
				C636.1,413.2,635.6,415.2,634.6,416.9z"/>
		</g>
	</g>
</g>
</svg>
